<svg width="27" height="35" viewBox="0 0 27 35" fill="none" xmlns="http://www.w3.org/2000/svg">
<path d="M5.78572 15.5556H21.2143V11.6667H5.78572V15.5556ZM23.1429 17.5V29.1667H27V17.5H23.1429ZM21.2143 31.1111H5.78572V35H21.2143V31.1111ZM3.85714 29.1667V17.5H0V29.1667H3.85714ZM5.78572 31.1111C4.7206 31.1111 3.85714 30.2404 3.85714 29.1667H0C0 32.3882 2.59034 35 5.78572 35V31.1111ZM23.1429 29.1667C23.1429 30.2404 22.2794 31.1111 21.2143 31.1111V35C24.4095 35 27 32.3882 27 29.1667H23.1429ZM21.2143 15.5556C22.2794 15.5556 23.1429 16.4261 23.1429 17.5H27C27 14.2783 24.4095 11.6667 21.2143 11.6667V15.5556ZM5.78572 11.6667C2.59034 11.6667 0 14.2783 0 17.5H3.85714C3.85714 16.4261 4.7206 15.5556 5.78572 15.5556V11.6667ZM7.71429 13.6111V9.72222H3.85714V13.6111H7.71429ZM19.2857 9.72222V13.6111H23.1429V9.72222H19.2857ZM13.5 3.88889C16.6954 3.88889 19.2857 6.50055 19.2857 9.72222H23.1429C23.1429 4.3528 18.8256 0 13.5 0V3.88889ZM7.71429 9.72222C7.71429 6.50055 10.3046 3.88889 13.5 3.88889V0C8.17441 0 3.85714 4.3528 3.85714 9.72222H7.71429Z" fill="white"/>
</svg>
