<svg width="35" height="50" viewBox="0 0 35 50" fill="none" xmlns="http://www.w3.org/2000/svg">
<path d="M35 9.82617L31.8114 45.9784L17.4786 50L3.18521 45.9841L0 9.82617H35Z" fill="#264DE4"/>
<path d="M29.0816 43.6764L31.8065 12.7826H17.5V46.9261L29.0816 43.6764Z" fill="#2965F1"/>
<path d="M7.30203 26.1931L7.69474 30.6276H17.5V26.1931H7.30203Z" fill="#EBEBEB"/>
<path d="M17.5 17.2173H17.4848H6.51294L6.91125 21.652H17.5V17.2173Z" fill="#EBEBEB"/>
<path d="M17.5 42.3241V37.7103L17.4808 37.7154L12.6009 36.3818L12.289 32.845H7.89052L8.50438 39.808L17.4798 42.3298L17.5 42.3241Z" fill="#EBEBEB"/>
<path d="M8.23701 0H13.5439V2.24609H10.4563V4.49219H13.5439V6.73828H8.23701V0Z" fill="#FEFEFE"/>
<path d="M14.6053 0H19.9122V1.95313H16.8246V2.34375H19.9122V6.83594H14.6053V4.78516H17.693V4.39453H14.6053V0Z" fill="#FEFEFE"/>
<path d="M20.9736 0H26.2805V1.95313H23.1929V2.34375H26.2805V6.83594H20.9736V4.78516H24.0613V4.39453H20.9736V0Z" fill="#FEFEFE"/>
<path d="M22.8803 30.6276L22.3718 36.379L17.4849 37.714V42.3276L26.4674 39.808L27.563 27.3839L27.6699 26.1931L28.4609 17.2173H17.4848L17.4849 21.652H23.659L23.2603 26.1931H17.4849V30.6276H22.8803Z" fill="white"/>
</svg>
