<svg width="35" height="50" viewBox="0 0 35 50" fill="none" xmlns="http://www.w3.org/2000/svg">
<path d="M3.18521 45.9841L0 9.82617H35L31.8114 45.9784L17.4786 50L3.18521 45.9841Z" fill="#E44D26"/>
<path d="M17.5 46.9261L29.0816 43.6764L31.8065 12.7826H17.5V46.9261Z" fill="#F16529"/>
<path d="M17.5 26.1931H11.7019L11.3015 21.652H17.5V17.2173H17.4848H6.51294L7.69474 30.6276H17.5V26.1931Z" fill="#EBEBEB"/>
<path d="M17.5 37.7103L17.4808 37.7154L12.6009 36.3818L12.289 32.845H7.89052L8.50438 39.808L17.4798 42.3298L17.5 42.3241V37.7103Z" fill="#EBEBEB"/>
<path d="M3.25642 0H5.48311V2.22656H7.52V0H9.74678V6.74258H7.5201V4.48477H5.48321V6.74258H3.25652L3.25642 0Z" fill="#FEFEFE"/>
<path d="M12.6749 2.23594H10.7147V0H16.863V2.23594H14.9018V6.74258H12.675L12.6749 2.23594Z" fill="#FEFEFE"/>
<path d="M17.8388 0H20.1606L21.5888 2.36914L23.0156 0H25.3383V6.74258H23.1208V3.40059L21.5888 5.79795H21.5505L20.0175 3.40059V6.74258H17.8388V0Z" fill="#FEFEFE"/>
<path d="M26.4465 0H28.6739V4.51387H31.8052V6.74258H26.4465V0Z" fill="#FEFEFE"/>
<path d="M17.4848 26.1931V30.6276H22.8803L22.3718 36.379L17.4848 37.714V42.3276L26.4674 39.808L27.563 27.3839L27.6699 26.1931H17.4848Z" fill="#FEFEFE"/>
<path d="M17.4848 17.2173V21.652H28.0686L28.4609 17.2173H17.4848Z" fill="#FEFEFE"/>
</svg>
