<svg width="161" height="185" viewBox="0 0 161 185" fill="none" xmlns="http://www.w3.org/2000/svg">
<path d="M161 0L146.332 166.481L80.4015 185L14.652 166.507L0 0H161Z" fill="#264DE4"/>
<path d="M133.775 155.88L146.31 13.6144H80.5V170.845L133.775 155.88Z" fill="#2965F1"/>
<path d="M33.5893 75.3694L35.3958 95.7905H80.5V75.3694H33.5893Z" fill="#EBEBEB"/>
<path d="M80.5 34.036H80.4303H29.9595L31.7917 54.4576H80.5V34.036Z" fill="#EBEBEB"/>
<path d="M80.5 149.653V128.406L80.4117 128.43L57.9643 122.289L56.5294 106.002H36.2964L39.1202 138.066L80.4072 149.679L80.5 149.653Z" fill="#EBEBEB"/>
<path d="M105.25 95.7905L102.91 122.275L80.4303 128.423V149.669L121.75 138.066L126.79 80.8531L127.281 75.3694L130.92 34.036H80.4303V54.4576H108.831L106.997 75.3694H80.4303V95.7905H105.25Z" fill="white"/>
</svg>
