<svg width="161" height="185" viewBox="0 0 161 185" fill="none" xmlns="http://www.w3.org/2000/svg">
<path d="M14.652 166.507L0 0H161L146.332 166.481L80.4015 185L14.652 166.507Z" fill="#E44D26"/>
<path d="M80.5 170.845L133.775 155.88L146.31 13.6144H80.5V170.845Z" fill="#F16529"/>
<path d="M80.5 75.3694H53.829L51.987 54.4576H80.5V34.036H80.4303H29.9595L35.3958 95.7905H80.5V75.3694Z" fill="#EBEBEB"/>
<path d="M80.5 128.406L80.4117 128.43L57.9643 122.289L56.5294 106.002H36.2964L39.1202 138.066L80.4072 149.679L80.5 149.653V128.406Z" fill="#EBEBEB"/>
<path d="M80.4303 75.3694V95.7905H105.25L102.91 122.275L80.4303 128.423V149.669L121.75 138.066L126.79 80.8531L127.281 75.3694H80.4303Z" fill="#FEFEFE"/>
<path d="M80.4303 34.036V54.4576H129.115L130.92 34.036H80.4303Z" fill="#FEFEFE"/>
</svg>
