<svg width="160" height="160" viewBox="0 0 160 160" fill="none" xmlns="http://www.w3.org/2000/svg">
<path d="M0 0H160V160H0V0ZM146.893 121.84C145.727 114.54 140.973 108.407 126.873 102.687C121.967 100.387 116.513 98.7867 114.893 95.0867C114.287 92.8867 114.193 91.6867 114.587 90.3867C115.587 86.08 120.687 84.7867 124.687 85.9867C127.287 86.7867 129.687 88.7867 131.193 91.9867C138.087 87.48 138.087 87.48 142.893 84.4867C141.093 81.6867 140.2 80.48 138.987 79.2867C134.787 74.5867 129.193 72.1867 120.093 72.3933L115.393 72.9867C110.887 74.0867 106.593 76.4867 103.993 79.6867C96.3933 88.2933 98.5867 103.293 107.787 109.493C116.887 116.293 130.193 117.787 131.893 124.193C133.493 131.993 126.093 134.493 118.787 133.593C113.38 132.393 110.387 129.687 107.087 124.687L94.8867 131.693C96.2867 134.893 97.8867 136.287 100.287 139.087C111.887 150.793 140.887 150.193 146.093 132.393C146.287 131.793 147.693 127.693 146.587 121.393L146.893 121.84ZM87.0067 73.54H72.02C72.02 86.46 71.96 99.3 71.96 112.24C71.96 120.453 72.38 127.993 71.04 130.313C68.84 134.907 63.1733 134.32 60.6 133.513C57.96 132.207 56.62 130.407 55.0667 127.813C54.6467 127.113 54.3333 126.507 54.22 126.507L42.0533 134.007C44.0867 138.207 47.0533 141.82 50.88 144.12C56.58 147.52 64.24 148.62 72.26 146.82C77.48 145.313 81.98 142.213 84.3333 137.413C87.7333 131.213 87.0133 123.613 86.98 115.107C87.06 101.413 86.98 87.7133 86.98 73.9133L87.0067 73.54Z" fill="#F7DF1E"/>
</svg>
